<svg xmlns="http://www.w3.org/2000/svg" width="800" height="600" viewBox="0 0 800 600" fill="none" role="img" aria-label="Queer health and rights support in Nigeria">
  <defs>
    <linearGradient id="bg" x1="90" y1="30" x2="710" y2="570" gradientUnits="userSpaceOnUse">
      <stop offset="0" stop-color="#0EA5E9" />
      <stop offset="0.35" stop-color="#8B5CF6" />
      <stop offset="0.7" stop-color="#EC4899" />
      <stop offset="1" stop-color="#F97316" />
    </linearGradient>
    <linearGradient id="pride" x1="260" y1="180" x2="540" y2="420" gradientUnits="userSpaceOnUse">
      <stop offset="0" stop-color="#EF4444" />
      <stop offset="0.16" stop-color="#F97316" />
      <stop offset="0.33" stop-color="#FACC15" />
      <stop offset="0.5" stop-color="#22C55E" />
      <stop offset="0.66" stop-color="#3B82F6" />
      <stop offset="0.83" stop-color="#6366F1" />
      <stop offset="1" stop-color="#A855F7" />
    </linearGradient>
    <filter id="shadow" x="-40" y="-40" width="880" height="680" color-interpolation-filters="sRGB">
      <feDropShadow dx="0" dy="18" stdDeviation="18" flood-color="#0B1220" flood-opacity="0.22" />
    </filter>
    <filter id="softGlow" x="-40" y="-40" width="880" height="680" color-interpolation-filters="sRGB">
      <feGaussianBlur stdDeviation="22" result="blur" />
      <feColorMatrix
        in="blur"
        type="matrix"
        values="1 0 0 0 0
                0 1 0 0 0
                0 0 1 0 0
                0 0 0 0.35 0"
        result="glow"
      />
      <feBlend in="SourceGraphic" in2="glow" mode="screen" />
    </filter>
  </defs>

  <rect width="800" height="600" fill="url(#bg)" />

  <g opacity="0.35" filter="url(#softGlow)">
    <circle cx="140" cy="140" r="120" fill="url(#pride)" />
    <circle cx="675" cy="140" r="95" fill="#FFFFFF" />
    <circle cx="660" cy="470" r="145" fill="url(#pride)" />
  </g>

  <g filter="url(#shadow)">
    <rect x="150" y="120" width="500" height="360" rx="28" fill="#FFFFFF" fill-opacity="0.92" />
  </g>

  <!-- Nigeria flag card -->
  <g opacity="0.98">
    <rect x="255" y="165" width="290" height="160" rx="18" fill="#0B1220" fill-opacity="0.08" />
    <rect x="265" y="175" width="270" height="140" rx="14" fill="#FFFFFF" />
    <rect x="265" y="175" width="90" height="140" rx="14" fill="#008753" />
    <rect x="445" y="175" width="90" height="140" rx="14" fill="#008753" />
    <rect x="265" y="175" width="270" height="140" rx="14" stroke="#0B1220" stroke-opacity="0.12" />
  </g>

  <!-- Pride heart + health cross -->
  <g>
    <path
      d="M400 418c0 0-126-74.2-126-165.8 0-49.3 39.7-78.2 82.2-78.2 20.9 0 41.1 9.5 54.6 26.2 13.5-16.7 33.7-26.2 54.6-26.2 42.5 0 82.2 28.9 82.2 78.2C526 343.8 400 418 400 418Z"
      fill="url(#pride)"
      stroke="#0B1220"
      stroke-opacity="0.12"
      stroke-width="2"
    />
    <rect x="382" y="276" width="36" height="92" rx="10" fill="#FFFFFF" fill-opacity="0.92" />
    <rect x="354" y="304" width="92" height="36" rx="10" fill="#FFFFFF" fill-opacity="0.92" />
  </g>

  <!-- Minimal stethoscope line -->
  <path
    d="M254 420c38-38 74-56 116-56 40 0 73 15 100 46 26 30 57 45 94 45 42 0 84-21 128-64"
    stroke="#0B1220"
    stroke-opacity="0.16"
    stroke-width="10"
    stroke-linecap="round"
  />
  <circle cx="254" cy="420" r="13" fill="#0B1220" fill-opacity="0.16" />
  <circle cx="654" cy="391" r="13" fill="#0B1220" fill-opacity="0.16" />
</svg>
