<svg xmlns="http://www.w3.org/2000/svg" width="1200" height="630" viewBox="0 0 1200 630">
  <defs>
    <linearGradient id="bg" x1="0" y1="0" x2="1" y2="1">
      <stop offset="0" stop-color="#0b1220"/>
      <stop offset="0.5" stop-color="#0ea5e9"/>
      <stop offset="1" stop-color="#22c55e"/>
    </linearGradient>
    <filter id="soft" x="-20%" y="-20%" width="140%" height="140%">
      <feGaussianBlur stdDeviation="22"/>
    </filter>
  </defs>
  <rect width="1200" height="630" fill="url(#bg)"/>
  <g opacity="0.22" filter="url(#soft)">
    <circle cx="250" cy="470" r="230" fill="#f472b6"/>
    <circle cx="980" cy="160" r="250" fill="#60a5fa"/>
    <circle cx="660" cy="260" r="180" fill="#f59e0b"/>
  </g>
  <g opacity="0.95">
    <rect x="0" y="0" width="18" height="630" fill="#ef4444"/>
    <rect x="18" y="0" width="18" height="630" fill="#f97316"/>
    <rect x="36" y="0" width="18" height="630" fill="#f59e0b"/>
    <rect x="54" y="0" width="18" height="630" fill="#22c55e"/>
    <rect x="72" y="0" width="18" height="630" fill="#3b82f6"/>
    <rect x="90" y="0" width="18" height="630" fill="#8b5cf6"/>
  </g>
  <rect x="140" y="128" width="980" height="374" rx="28" fill="#0b1220" opacity="0.55"/>
  <text x="170" y="210" font-family="ui-sans-serif, system-ui, -apple-system, Segoe UI, Roboto, Helvetica, Arial" font-size="28" fill="#cffafe" letter-spacing="2">
    SEQHER
  </text>
  <text x="170" y="300" font-family="ui-sans-serif, system-ui, -apple-system, Segoe UI, Roboto, Helvetica, Arial" font-size="72" font-weight="800" fill="#ffffff">
    Mental Health
  </text>
  <text x="170" y="360" font-family="ui-sans-serif, system-ui, -apple-system, Segoe UI, Roboto, Helvetica, Arial" font-size="28" fill="#e5e7eb" opacity="0.92">
    Support, coping, and community care
  </text>
  <g transform="translate(932 210)" opacity="0.95">
    <rect x="0" y="0" width="170" height="170" rx="28" fill="#111827" opacity="0.5"/>
    <path d="M60 120c10 0 18-7 20-16 2 9 10 16 20 16 12 0 22-10 22-22 0-26-24-44-42-54-18 10-42 28-42 54 0 12 10 22 22 22z" fill="#f472b6"/>
    <path d="M60 118c-10 0-18-8-18-18 0-21 20-36 38-46 18 10 38 25 38 46 0 10-8 18-18 18-7 0-13-4-16-10-3 6-9 10-16 10z" fill="#60a5fa" opacity="0.85"/>
  </g>
</svg>
