<svg xmlns="http://www.w3.org/2000/svg" width="1200" height="630" viewBox="0 0 1200 630">
  <defs>
    <linearGradient id="bg" x1="0" y1="0" x2="1" y2="1">
      <stop offset="0" stop-color="#0b1220"/>
      <stop offset="0.45" stop-color="#60a5fa"/>
      <stop offset="1" stop-color="#fca5a5"/>
    </linearGradient>
    <filter id="soft" x="-20%" y="-20%" width="140%" height="140%">
      <feGaussianBlur stdDeviation="22"/>
    </filter>
  </defs>
  <rect width="1200" height="630" fill="url(#bg)"/>
  <g opacity="0.2" filter="url(#soft)">
    <circle cx="260" cy="440" r="220" fill="#f472b6"/>
    <circle cx="1020" cy="170" r="260" fill="#93c5fd"/>
    <circle cx="700" cy="540" r="160" fill="#fde68a"/>
  </g>
  <g opacity="0.9">
    <rect x="0" y="0" width="22" height="630" fill="#60a5fa"/>
    <rect x="22" y="0" width="22" height="630" fill="#fca5a5"/>
    <rect x="44" y="0" width="22" height="630" fill="#ffffff"/>
    <rect x="66" y="0" width="22" height="630" fill="#fca5a5"/>
    <rect x="88" y="0" width="22" height="630" fill="#60a5fa"/>
  </g>
  <rect x="140" y="128" width="980" height="374" rx="28" fill="#0b1220" opacity="0.55"/>
  <text x="170" y="210" font-family="ui-sans-serif, system-ui, -apple-system, Segoe UI, Roboto, Helvetica, Arial" font-size="28" fill="#e0f2fe" letter-spacing="2">
    SEQHER
  </text>
  <text x="170" y="300" font-family="ui-sans-serif, system-ui, -apple-system, Segoe UI, Roboto, Helvetica, Arial" font-size="72" font-weight="800" fill="#ffffff">
    Trans Awareness
  </text>
  <text x="170" y="360" font-family="ui-sans-serif, system-ui, -apple-system, Segoe UI, Roboto, Helvetica, Arial" font-size="28" fill="#e5e7eb" opacity="0.92">
    Visibility, dignity, and safer access to care
  </text>
  <g transform="translate(936 210)" opacity="0.95">
    <rect x="0" y="0" width="168" height="168" rx="28" fill="#111827" opacity="0.5"/>
    <path d="M84 36a48 48 0 1 1 0 96a48 48 0 0 1 0-96z" fill="#ffffff" opacity="0.18"/>
    <path d="M84 56a28 28 0 1 1 0 56a28 28 0 0 1 0-56z" fill="#ffffff" opacity="0.55"/>
    <path d="M84 66a18 18 0 1 1 0 36a18 18 0 0 1 0-36z" fill="#22c55e"/>
  </g>
</svg>
