<svg xmlns="http://www.w3.org/2000/svg" width="1200" height="630" viewBox="0 0 1200 630">
  <defs>
    <linearGradient id="bg" x1="0" y1="0" x2="1" y2="1">
      <stop offset="0" stop-color="#0b1220"/>
      <stop offset="0.5" stop-color="#22c55e"/>
      <stop offset="1" stop-color="#3b82f6"/>
    </linearGradient>
    <filter id="soft" x="-20%" y="-20%" width="140%" height="140%">
      <feGaussianBlur stdDeviation="22"/>
    </filter>
  </defs>
  <rect width="1200" height="630" fill="url(#bg)"/>
  <g opacity="0.22" filter="url(#soft)">
    <circle cx="260" cy="470" r="240" fill="#f472b6"/>
    <circle cx="1020" cy="170" r="250" fill="#f59e0b"/>
    <circle cx="700" cy="300" r="170" fill="#a78bfa"/>
  </g>
  <g opacity="0.95">
    <rect x="0" y="0" width="18" height="630" fill="#ef4444"/>
    <rect x="18" y="0" width="18" height="630" fill="#f97316"/>
    <rect x="36" y="0" width="18" height="630" fill="#f59e0b"/>
    <rect x="54" y="0" width="18" height="630" fill="#22c55e"/>
    <rect x="72" y="0" width="18" height="630" fill="#3b82f6"/>
    <rect x="90" y="0" width="18" height="630" fill="#8b5cf6"/>
  </g>
  <rect x="140" y="128" width="980" height="374" rx="28" fill="#0b1220" opacity="0.55"/>
  <text x="170" y="210" font-family="ui-sans-serif, system-ui, -apple-system, Segoe UI, Roboto, Helvetica, Arial" font-size="28" fill="#dcfce7" letter-spacing="2">
    SEQHER
  </text>
  <text x="170" y="300" font-family="ui-sans-serif, system-ui, -apple-system, Segoe UI, Roboto, Helvetica, Arial" font-size="72" font-weight="800" fill="#ffffff">
    Capacity Building
  </text>
  <text x="170" y="360" font-family="ui-sans-serif, system-ui, -apple-system, Segoe UI, Roboto, Helvetica, Arial" font-size="28" fill="#e5e7eb" opacity="0.92">
    Training, mentorship, and stronger systems
  </text>
  <g transform="translate(932 210)" opacity="0.95">
    <rect x="0" y="0" width="170" height="170" rx="28" fill="#111827" opacity="0.5"/>
    <path d="M40 70h130v18H40z" fill="#ffffff" opacity="0.22"/>
    <path d="M40 100h98v18H40z" fill="#ffffff" opacity="0.22"/>
    <path d="M40 130h76v18H40z" fill="#ffffff" opacity="0.22"/>
    <path d="M148 104l18 18-18 18-12-12 6-6-6-6 12-12z" fill="#22c55e"/>
  </g>
</svg>
