<svg xmlns="http://www.w3.org/2000/svg" width="1200" height="630" viewBox="0 0 1200 630">
  <defs>
    <linearGradient id="bg" x1="0" y1="0" x2="1" y2="1">
      <stop offset="0" stop-color="#0b1220"/>
      <stop offset="0.45" stop-color="#f59e0b"/>
      <stop offset="1" stop-color="#ef4444"/>
    </linearGradient>
    <filter id="soft" x="-20%" y="-20%" width="140%" height="140%">
      <feGaussianBlur stdDeviation="22"/>
    </filter>
  </defs>
  <rect width="1200" height="630" fill="url(#bg)"/>
  <g opacity="0.22" filter="url(#soft)">
    <circle cx="250" cy="180" r="220" fill="#60a5fa"/>
    <circle cx="1020" cy="470" r="260" fill="#22c55e"/>
    <circle cx="700" cy="520" r="170" fill="#a78bfa"/>
  </g>
  <g opacity="0.95">
    <rect x="0" y="0" width="18" height="630" fill="#ef4444"/>
    <rect x="18" y="0" width="18" height="630" fill="#f97316"/>
    <rect x="36" y="0" width="18" height="630" fill="#f59e0b"/>
    <rect x="54" y="0" width="18" height="630" fill="#22c55e"/>
    <rect x="72" y="0" width="18" height="630" fill="#3b82f6"/>
    <rect x="90" y="0" width="18" height="630" fill="#8b5cf6"/>
  </g>
  <rect x="140" y="128" width="980" height="374" rx="28" fill="#0b1220" opacity="0.55"/>
  <text x="170" y="210" font-family="ui-sans-serif, system-ui, -apple-system, Segoe UI, Roboto, Helvetica, Arial" font-size="28" fill="#ffedd5" letter-spacing="2">
    SEQHER
  </text>
  <text x="170" y="300" font-family="ui-sans-serif, system-ui, -apple-system, Segoe UI, Roboto, Helvetica, Arial" font-size="72" font-weight="800" fill="#ffffff">
    Emergency Response
  </text>
  <text x="170" y="360" font-family="ui-sans-serif, system-ui, -apple-system, Segoe UI, Roboto, Helvetica, Arial" font-size="28" fill="#e5e7eb" opacity="0.92">
    Relief, recovery, and solidarity
  </text>
  <g transform="translate(930 210)" opacity="0.95">
    <rect x="0" y="0" width="170" height="170" rx="28" fill="#111827" opacity="0.5"/>
    <path d="M48 122h74c8 0 14-6 14-14V90c0-8-6-14-14-14H48c-8 0-14 6-14 14v18c0 8 6 14 14 14z" fill="#ffffff" opacity="0.18"/>
    <path d="M56 90h58v18H56z" fill="#ffffff" opacity="0.75"/>
    <path d="M84 54l48 26-48 26-48-26 48-26z" fill="#22c55e" opacity="0.95"/>
  </g>
</svg>
